# xmcd
#
# Track frame offsets:
#	182
#	11747
#	31750
#	49915
#	64955
#	88212
#	115405
#	127867
#	141262
#	157035
#	172965
#	190485
#	212550
#	229560
#	246622
#	280500
#	295165
#	325292
#
# Disc length: 4573 seconds
#
# Revision: 0
# Processed by: cddbd v1.4PL0 Copyright (c) Steve Scherf et al.
# Submitted via: EasyCDDAExtractor 4.6.0.1
#
DISCID=0b11db12
DTITLE=Eric Clapton - Nuthin' but the blues
DYEAR=1995
DGENRE=Blues
TTITLE0=Blues leave me alone
TTITLE1=Standing around crying
TTITLE2=Fourty-Four-Blues
TTITLE3=It hurts me, too
TTITLE4=Five long years
TTITLE5=Crossroads
TTITLE6=Malted milk
TTITLE7=Motherless children
TTITLE8=How long
TTITLE9=Reconsider baby
TTITLE10=Sinner's prayer
TTITLE11=Everyday I have the blues
TTITLE12=Someday after a while
TTITLE13=Crosscut saw
TTITLE14=Have you ever loved a woman
TTITLE15=(I'm) tore down
TTITLE16=Groanin' the blues
TTITLE17=Ain't nobody's business if I do
EXTD=
EXTT0=
EXTT1=
EXTT2=
EXTT3=
EXTT4=
EXTT5=
EXTT6=
EXTT7=
EXTT8=
EXTT9=
EXTT10=
EXTT11=
EXTT12=
EXTT13=
EXTT14=
EXTT15=
EXTT16=
EXTT17=
PLAYORDER=
